<svg xmlns="http://www.w3.org/2000/svg" viewBox="0 0 512 512" width="512" height="512">
  <defs>
    <linearGradient id="ig-grad" x1="0%" y1="100%" x2="100%" y2="0%">
      <stop offset="0%" stop-color="#f09433"/>
      <stop offset="25%" stop-color="#e6683c"/>
      <stop offset="50%" stop-color="#dc2743"/>
      <stop offset="75%" stop-color="#cc2366"/>
      <stop offset="100%" stop-color="#bc1888"/>
    </linearGradient>
    <linearGradient id="arrow-grad" x1="0%" y1="0%" x2="0%" y2="100%">
      <stop offset="0%" stop-color="#ffffff"/>
      <stop offset="100%" stop-color="#f0f0f0"/>
    </linearGradient>
  </defs>
  <!-- Instagram Story Gradient Ring Background -->
  <rect x="32" y="32" width="448" height="448" rx="128" fill="url(#ig-grad)" />
  <!-- Inner Dark Circle -->
  <circle cx="256" cy="256" r="180" fill="#121212" opacity="0.9" />
  <!-- Download Arrow Icon -->
  <g fill="url(#arrow-grad)">
    <path d="M256 120 c-13.3 0-24 10.7-24 24 v136 h-44.7 c-21.4 0-32.1 25.9-17 41l70.7 70.7 c9.4 9.4 24.6 9.4 34 0 l70.7-70.7 c15.1-15.1 4.4-41-17-41 H280 V144 c0-13.3-10.7-24-24-24 z"/>
    <rect x="152" y="400" width="208" height="32" rx="16" />
  </g>
</svg>
